# xmcd
#
# Track frame offsets:
#	150
#	26597
#	55898
#	94813
#	121547
#	137953
#	148075
#	169535
#	202557
#	235275
#	250401
#
# Disc length: 3862 seconds
#
# Revision: 1
# Processed by: cddbd v1.5.1PL2 Copyright (c) Steve Scherf et al.
# Submitted via: EasyCDDAExtractor 9.0.0.1
#
DISCID=900f140b
DTITLE=Guns and Roses - Gofferpark Nijmegen 02-07-06 Disc 2
DYEAR=2006
DGENRE=Hard Rock
TTITLE0=Beautiful (Instrumental)
TTITLE1=Out Ta Get Me
TTITLE2=November Rain
TTITLE3=Don't Cry (instrumental)
TTITLE4=My Michelle
TTITLE5=Band Introduction
TTITLE6=Think About You
TTITLE7=Patience
TTITLE8=Nighttrain
TTITLE9=Robin Solo
TTITLE10=Paradise City
EXTD=
EXTT0=
EXTT1=
EXTT2=
EXTT3=
EXTT4=
EXTT5=
EXTT6=
EXTT7=
EXTT8=
EXTT9=
EXTT10=
PLAYORDER=
